<?xml version="1.0" encoding="utf-8"?>
<!-- Generator: Adobe Illustrator 23.1.1, SVG Export Plug-In . SVG Version: 6.00 Build 0)  -->
<svg version="1.1" xmlns="http://www.w3.org/2000/svg" xmlns:xlink="http://www.w3.org/1999/xlink" x="0px" y="0px"
	 viewBox="0 0 612 792" style="enable-background:new 0 0 612 792;" xml:space="preserve">
<style type="text/css">
	.st0{fill:#FFFFFF;}
	.st1{fill:none;stroke:#A7A9AC;stroke-width:17;}
	.st2{stroke:#000000;}
</style>
<g id="Layer_1">
	<path d="M333.45,143.75c-127.54,0-230.92,103.38-230.92,230.91s103.38,230.92,230.92,230.92c127.53,0,230.91-103.39,230.91-230.92
		S460.98,143.75,333.45,143.75z"/>
	<path class="st0" d="M239.9,455.07"/>
	<path class="st0" d="M138.87,304.75v-5.69c0-1.9-0.81-2.81-2.72-2.81c-1.91,0-2.72,0.92-2.72,2.81v32.42c0,1.9,0.81,2.81,2.72,2.81
		c1.91,0,2.72-0.92,2.72-2.81v-6.18h4.86v6.3c0,3.73-2.5,6.12-7.58,6.12s-7.58-2.39-7.58-6.12v-32.67c0-3.73,2.5-6.12,7.58-6.12
		s7.58,2.39,7.58,6.12v5.81H138.87z M476.88,503.17c-0.02,26.25-5.28,47.79-15.3,64.49c-36.68,24.44-80.73,38.69-128.11,38.69
		c-4.41,0-8.78-0.14-13.13-0.38l0.14-207.51l53.82-0.32C439.7,397.73,476.93,433.21,476.88,503.17z M456.66,503.29
		c0.04-62.36-33.52-87.21-90.11-85.1l-26.65-0.13l-0.12,171.02l38.79-0.25C434.6,588.48,456.62,556.55,456.66,503.29z
		 M320.13,306.05l115.62-74.46h79.32c-2.97-3.76-6.06-7.41-9.25-10.98h-70.07l-107.56-76.96c-2.7,0.06-5.38,0.17-8.06,0.32v8.03
		l104.02,73.93l-104.02,66.95V306.05z M282.94,487.65l-144.61-0.05l-0.05-42.56l144.61,0.13l-0.02-24.8l-144.45-0.12l-0.06-38.64
		h144.54l0.13-24.47H102.76c-0.45,5.89-0.68,11.84-0.68,17.85c0,52.02,17.17,100.02,46.14,138.67l134.74-0.12L282.94,487.65z
		 M160.15,337.35v-19.21l7.14-24.96h-4.86l-4.64,20.06h-0.15l-4.64-20.06h-4.86l7.14,24.96v19.21H160.15z M268.46,293.19h6.63
		l7.8,44.17h-4.86l-1.99-12.23h-8.54l-1.99,12.23h-4.86L268.46,293.19z M271.7,296.24l-3.68,25.45h7.51l-3.68-25.45H271.7z
		 M177.97,298.08h0.15l6.11,39.27h6.92v-44.17h-4.27v37.8h-0.15l-5.96-37.8h-7.07v44.17h4.27V298.08z M518.01,371.8l-122.52-0.06
		l-0.3-38.06c-0.36-46.25,20.13-72.59,60.69-72.57c40.55,0.01,61.47,26.36,61.82,72.62L518.01,371.8z M502.85,356.96l-0.23-26.35
		c-0.31-39.62-15.75-54.12-46.62-54.14c-36.15-0.01-47.01,22.66-45.67,62.69l0.14,17.76L502.85,356.96z M208.89,337.35v-40.74h5.45
		v-3.43h-15.76v3.43h5.45v40.74H208.89z M253.59,337.35v-44.17h-4.86v44.17H253.59z M239.01,337.35v-44.17h-4.86v19.51h-7.29v-19.51
		H222v44.17h4.86v-21.23h7.29v21.23H239.01z"/>
	<g>
		<path class="st0" d="M-144.53,70.06h22.75l-0.02,3h-17.72l0.01,4.74l17.71,0.01l0,3.04l-17.73-0.02l0.01,5.22l17.73,0.01l0,3.17
			l-22.74,0.02L-144.53,70.06z"/>
		<path d="M-87.23,72.25c0,15.67-12.7,28.37-28.36,28.37c-15.67,0-28.37-12.7-28.37-28.37c0-15.66,12.7-28.36,28.37-28.36
			C-99.93,43.89-87.23,56.59-87.23,72.25z"/>
		<path class="st0" d="M-110.59,75.09c8.02-0.05,12.58,4.3,12.58,12.88c-0.01,8.57-4.58,13.05-12.59,13.1l-6.6,0l0.02-25.94
			L-110.59,75.09z M-110.06,98.47c6.87-0.04,9.57-3.96,9.57-10.48c0-7.65-4.11-10.69-11.05-10.43l-3.27-0.02l-0.01,20.96
			L-110.06,98.47z"/>
		<path class="st0" d="M-108.02,67.34c-0.04-5.67,2.47-8.9,7.44-8.9c4.97,0,7.54,3.23,7.58,8.9l0.04,4.67l-15.02-0.01L-108.02,67.34
			z M-94.86,66.97c-0.04-4.86-1.93-6.63-5.72-6.64c-4.43,0-5.76,2.78-5.6,7.68l0.02,2.18l11.33,0.01L-94.86,66.97z"/>
		<path class="st1" d="M-127.06,82.07"/>
		<path class="st0" d="M-144.53,70.22h22.75l-0.02,3.17h-17.72l0.01,4.78l17.71,0.02l0,3.19l-17.73-0.02l0.01,4.71l17.73,0.01
			l0,3.32l-22.74,0.02L-144.53,70.22z"/>
		<g>
			<text transform="matrix(1.2035 0 0 1 -141.2456 67.6436)"><tspan x="0" y="0" class="st0" style="font-family:'Univers-LightUltraCondensed'; font-size:7.5px;">CYN</tspan><tspan x="13.99" y="0" class="st0" style="font-family:'Univers-LightUltraCondensed'; font-size:7.5px;">T</tspan><tspan x="17.95" y="0" class="st0" style="font-family:'Univers-LightUltraCondensed'; font-size:7.5px;">HI</tspan><tspan x="25.06" y="0" class="st0" style="font-family:'Univers-LightUltraCondensed'; font-size:7.5px;">A</tspan><tspan x="29.88" y="0" class="st0" style="font-family:'Univers-LightUltraCondensed'; font-size:7.5px;"> </tspan></text>
		</g>
		<path class="st0" d="M-117.23,44.92v-1.73l14.17,10.14h9.25l1.05,1.35h-10.3l-14.17,9.13v-1.61l13.4-8.62l-0.12,0.79
			L-117.23,44.92z"/>
	</g>
	<g>
		<g>
			<path class="st2" d="M1137.32,366.68c0,127.78-103.59,231.38-231.37,231.38c-127.8,0-231.38-103.6-231.38-231.38
				s103.59-231.37,231.38-231.37C1033.73,135.31,1137.32,238.9,1137.32,366.68z"/>
			<path class="st0" d="M946.78,389.85c65.41-0.41,102.63,35.07,102.58,105.03c-0.05,69.94-37.32,106.48-102.73,106.88l-53.82,0.02
				l0.14-211.62L946.78,389.85z M951.06,580.54c56.03-0.35,78.05-32.28,78.09-85.54c0.04-62.36-33.52-87.21-90.11-85.1l-26.65-0.13
				l-0.12,171.02L951.06,580.54z"/>
			<path class="st0" d="M967.69,325.4c-0.36-46.25,20.13-72.59,60.69-72.57c40.55,0.01,61.47,26.36,61.82,72.62l0.3,38.06
				l-122.52-0.06L967.69,325.4z M1075.11,322.32c-0.31-39.62-15.75-54.12-46.62-54.14c-36.15-0.01-47.01,22.66-45.67,62.69
				l0.14,17.76l92.38,0.05L1075.11,322.32z"/>
			<path class="st1" d="M812.39,446.79"/>
			<path class="st0" d="M669.92,348.83h185.58l-0.13,24.47H710.84l0.06,38.64l144.45,0.12l0.02,24.8l-144.61-0.13l0.05,42.56
				l144.61,0.05l0.02,25.86l-185.46,0.17L669.92,348.83z"/>
			
				<text transform="matrix(1.2035 0 0 1 696.99 330.2731)" class="st0" style="font-family:'UniversLTStd-LightUltraCn'; font-size:61.1799px; letter-spacing:1.66;">CYNTHIA </text>
			<path class="st0" d="M892.61,143.73v-14.12l115.62,82.73h75.47l8.53,10.98h-84l-115.62,74.46v-13.16l109.3-70.35l-1,6.43
				L892.61,143.73z"/>
		</g>
	</g>
	<path class="st2" d="M-348.22,143.59c-127.8,0-231.38,103.59-231.38,231.37s103.59,231.38,231.38,231.38
		c127.79,0,231.37-103.6,231.37-231.38S-220.44,143.59-348.22,143.59z"/>
</g>
<g id="Layer_2">
</g>
<g id="Layer_3">
</g>
</svg>
